<?xml version="1.0" encoding="UTF-8"?>
<svg width="29px" height="28px" viewBox="0 0 29 28" version="1.1" xmlns="http://www.w3.org/2000/svg" xmlns:xlink="http://www.w3.org/1999/xlink">
    <title>gas_sel</title>
    <defs>
        <linearGradient x1="47.6293805%" y1="-22.4285281%" x2="50%" y2="100%" id="linearGradient-1">
            <stop stop-color="#E9F3F8" offset="0%"></stop>
            <stop stop-color="#C5E7FC" stop-opacity="0.379397946" offset="100%"></stop>
        </linearGradient>
    </defs>
    <g id="20210112租户权限分配改为权限模板" stroke="none" stroke-width="1" fill="none" fill-rule="evenodd">
        <g id="系统管理员-权限模板燃气" transform="translate(-90.000000, -426.000000)" fill="url(#linearGradient-1)">
            <g id="gas_sel" transform="translate(90.198765, 426.000000)">
                <path d="M5.40874636,2.65384615 C5.08782925,2.65384615 4.78005607,2.78065122 4.5531334,3.00636569 C4.32621073,3.23208016 4.19872691,3.53821468 4.19872691,3.85742315 L4.19872691,24.1425769 C4.19872691,24.8073332 4.74043175,25.3461538 5.40874636,25.3461538 L22.5906755,25.3461538 C22.9116928,25.3461538 23.2196145,25.2195687 23.4466622,24.9938377 C23.67371,24.7681067 23.8012731,24.461885 23.8012731,24.1425769 L23.8012731,3.85742315 C23.8012731,3.19270593 23.2595289,2.65384615 22.5912537,2.65384615 L5.40874636,2.65384615 Z M20.1885586,4.63948944 C20.9467779,4.64201391 21.5608062,5.25277291 21.5633442,6.00695532 L20.7377791,15.3072185 C20.7352429,16.0611774 20.1215652,16.6718446 19.3635716,16.6746844 L8.63700653,16.6746844 C7.87901296,16.6718446 7.26533519,16.0611774 7.26279908,15.3072185 L6.43723397,6.00695532 C6.43977195,5.25277291 7.0538002,4.64201391 7.81201955,4.63948944 L20.1885586,4.63948944 Z M6.55945192,20.7679364 C6.23513386,20.2092374 6.23513386,19.5208721 6.55945192,18.9621731 C6.88376997,18.403474 7.48312721,18.0593335 8.13172369,18.0594017 C9.13422125,18.0595072 9.94684984,18.8678947 9.94684984,19.8650547 C9.94684984,20.8622148 9.13422125,21.6706022 8.13172369,21.6707078 C7.48312721,21.670776 6.88376997,21.3266354 6.55945192,20.7679364 Z M12.4280173,20.7679364 C12.1036992,20.2092374 12.1036992,19.5208721 12.4280173,18.9621731 C12.7523354,18.403474 13.3516926,18.0593335 14.0002891,18.0594017 C15.0027866,18.0595072 15.8154152,18.8678947 15.8154152,19.8650547 C15.8154152,20.8622148 15.0027866,21.6706022 14.0002891,21.6707078 C13.3516926,21.670776 12.7523354,21.3266354 12.4280173,20.7679364 Z M19.8694326,18.0594017 C20.8719301,18.0595072 21.6845587,18.8678947 21.6845587,19.8650547 C21.6845587,20.8622148 20.8719301,21.6706022 19.8694326,21.6707078 C19.2208361,21.670776 18.6214789,21.3266354 18.2971608,20.7679364 C17.9728428,20.2092374 17.9728428,19.5208721 18.2971608,18.9621731 C18.6214789,18.403474 19.2208361,18.0593335 19.8694326,18.0594017 Z M13.3096757,6.50107485 C13.3096757,6.50107485 16.0814169,7.36239685 15.4042268,10.0439143 C15.6642401,9.86200955 15.8849624,9.62903372 16.0513709,9.35933262 C16.0513709,9.35933262 17.4542868,10.4306772 17.4542868,12.0689679 C17.4542868,13.7078324 15.5082321,14.9117322 14.5866296,14.9014032 C14.7010355,14.7395826 14.7981071,14.5657114 14.8755332,14.3838066 C14.7455266,14.4245487 14.6103197,14.4463543 14.4739572,14.4486497 C14.4739572,14.4486497 15.2932878,13.3554995 14.5479165,12.6468168 C13.9955329,12.1257772 13.8551257,11.6931078 13.8464586,11.4050441 C13.8239241,11.2897039 13.8193017,11.1720683 13.8308578,11.0555804 C13.3593671,11.3315936 11.6190118,12.5326242 13.3784348,14.454388 C13.1727354,14.4188104 12.9705029,14.3648702 12.7740484,14.293715 C12.9180028,14.5114053 13.0797572,14.7169575 13.2576731,14.9082892 C13.2576731,14.9082892 10.4275734,14.4916871 10.4275734,12.0965118 C10.4275734,9.70191039 14.1284285,9.47237754 13.3096757,6.50107485 Z M13.063407,19.3178769 C12.8628679,19.6616604 12.8628679,20.0878888 13.063407,20.4316723 C13.2639461,20.7754558 13.6335718,20.9828756 14.0292916,20.9736898 C14.6219672,20.9599321 15.0953076,20.4719835 15.0953076,19.8747746 C15.0953076,19.2775657 14.6219672,18.789617 14.0292916,18.7758593 C13.6335718,18.7666735 13.2639461,18.9740933 13.063407,19.3178769 Z M7.18485183,19.3178769 C6.98431273,19.6616604 6.98431273,20.0878888 7.18485183,20.4316723 C7.38539094,20.7754558 7.75501665,20.9828756 8.15073652,20.9736898 C8.74341204,20.9599321 9.21675249,20.4719835 9.21675249,19.8747746 C9.21675249,19.2775657 8.74341204,18.789617 8.15073652,18.7758593 C7.75501665,18.7666735 7.38539094,18.9740933 7.18485183,19.3178769 Z M18.9306247,19.345158 C18.7305568,19.6832783 18.7305568,20.1024854 18.9306247,20.4406058 C19.1306927,20.7787262 19.4994499,20.9827292 19.89424,20.9736947 C20.485523,20.9601636 20.9577513,20.4802529 20.9577513,19.8928819 C20.9577513,19.3055108 20.485523,18.8256001 19.89424,18.8120691 C19.4994499,18.8030346 19.1306927,19.0070376 18.9306247,19.345158 Z"></path>
            </g>
        </g>
    </g>
</svg>