<?xml version="1.0" encoding="UTF-8"?>
<svg width="21px" height="18px" viewBox="0 0 21 18" version="1.1" xmlns="http://www.w3.org/2000/svg" xmlns:xlink="http://www.w3.org/1999/xlink">
    <title>selected</title>
    <g id="20210112租户权限分配改为权限模板" stroke="none" stroke-width="1" fill="none" fill-rule="evenodd">
        <g id="系统管理员-权限模板燃气" transform="translate(-272.000000, -431.000000)" fill="#FFFFFF">
            <path d="M282.5,431 C288.022847,431 292.5,435.029437 292.5,440 C292.5,444.970563 288.022847,449 282.5,449 C276.977153,449 272.5,444.970563 272.5,440 C272.5,435.029437 276.977153,431 282.5,431 Z M287.888286,437.032856 C287.493037,436.722557 286.88643,436.779953 286.483164,437.183218 L286.483164,437.183218 L281.397309,442.268771 L278.588338,439.458712 L278.500962,439.381863 C278.105595,439.076879 277.503115,439.135738 277.101907,439.536946 C276.669837,439.969016 276.634811,440.634514 277.023674,441.023377 L277.023674,441.023377 L280.544169,444.543872 L280.631545,444.620722 C281.026913,444.925706 281.629393,444.866847 282.030601,444.465639 C282.066299,444.429941 282.099287,444.39265 282.129549,444.354052 L282.129549,444.354052 L287.891362,438.591416 L287.977862,438.495443 C288.326274,438.065686 288.330683,437.466072 287.969596,437.104985 L287.969596,437.104985 Z" id="selected"></path>
        </g>
    </g>
</svg>