<?xml version="1.0" encoding="UTF-8"?>
<svg width="29px" height="28px" viewBox="0 0 29 28" version="1.1" xmlns="http://www.w3.org/2000/svg" xmlns:xlink="http://www.w3.org/1999/xlink">
    <title>water_nor</title>
    <defs>
        <linearGradient x1="6.8876163%" y1="-5.91838984%" x2="95.9591728%" y2="100%" id="linearGradient-1">
            <stop stop-color="#66A4FF" offset="0%"></stop>
            <stop stop-color="#3386FF" offset="100%"></stop>
        </linearGradient>
    </defs>
    <g id="20210112租户权限分配改为权限模板" stroke="none" stroke-width="1" fill="none" fill-rule="evenodd">
        <g id="系统管理员-权限模板水务" transform="translate(-90.000000, -508.000000)" fill="url(#linearGradient-1)">
            <g id="water_nor" transform="translate(90.198765, 508.000000)">
                <path d="M4.95390278,3.44617083 L23.0460972,3.44617083 C23.4623898,3.44617083 23.8,3.78366321 23.8,4.20007362 L23.8,23.7999264 C23.8,24.2163368 23.4623898,24.5538292 23.0460972,24.5538292 L4.95390278,24.5538292 C4.53749238,24.5538292 4.2,24.2163368 4.2,23.7999264 L4.2,4.20007362 C4.2,3.78366321 4.53749238,3.44617083 4.95390278,3.44617083 Z M14,22.2922681 C15.6653472,22.2922681 17.0153167,20.9421808 17.0153167,19.2769514 C17.0153167,18.1664746 16.0104369,16.1560082 14,13.2461708 C11.9894159,16.1560082 10.9845361,18.1664746 10.9845361,19.2769514 C10.9845361,20.9421808 12.3346234,22.2922681 14,22.2922681 Z M22.2921944,5.04434933 L5.70765833,5.03678144 L5.70765833,10.9846097 L22.2921944,10.9846097 L22.2921944,5.04434933 Z M8.9115243,9.47695139 L10.4191826,9.47695139 L10.4191826,6.4614875 L8.9115243,6.4614875 L8.9115243,9.47695139 Z M13.4346465,9.47695139 L14.9423049,9.47695139 L14.9423049,6.4614875 L13.4346465,6.4614875 L13.4346465,9.47695139 Z M17.9576215,9.47695139 L19.4652799,9.47695139 L19.4652799,6.4614875 L17.9576215,6.4614875 L17.9576215,9.47695139 Z"></path>
            </g>
        </g>
    </g>
</svg>